<?xml version="1.0" encoding="utf-8"?>
<svg viewBox="96.5602 51.489 302.8588 384.2958" width="302.859" height="384.296" xmlns="http://www.w3.org/2000/svg" xmlns:bx="https://boxy-svg.com">
  <path style="fill: rgb(216, 216, 216); stroke: rgb(0, 0, 0); transform-origin: 428.714px 689.473px;" transform="matrix(0, 0.513436019421, -0.668658018112, 0, -267.467821438665, -373.735934551189)" d="M 351.572 611.708 A 96.74 96.74 0 1 1 351.572 767.238 A 79.538 79.538 0 1 0 351.572 611.708 Z" bx:shape="crescent 409.115 689.473 96.74 253 0.7 1@29ce870a"/>
  <path style="fill: rgb(216, 216, 216); stroke: rgb(0, 0, 0);" transform="matrix(0.6705650687217712, 0, 0, 0.8594650626182555, -106.88182067871094, -240.09303283691406)" d="M 352.253 611.209 A 96.74 96.74 0 1 1 352.253 767.737 A 79.829 79.829 0 1 0 352.253 611.209 Z" bx:shape="crescent 409.115 689.473 96.74 252 0.7 1@c4f7af7e"/>
  <path style="fill: rgb(216, 216, 216); stroke: rgb(0, 0, 0); transform-origin: 428.714px 689.473px;" transform="matrix(0, 0.513436019421, -0.668658018112, 0, -98.359392483588, -373.901030138462)" d="M 351.572 611.708 A 96.74 96.74 0 1 1 351.572 767.238 A 79.538 79.538 0 1 0 351.572 611.708 Z" bx:shape="crescent 409.115 689.473 96.74 253 0.7 1@29ce870a"/>
  <path style="fill: rgb(216, 216, 216); stroke: rgb(0, 0, 0);" transform="matrix(-0.6705650687217712, 0, 0, 0.8594650626182555, 598.0964965820312, -239.93789672851562)" d="M 352.253 611.209 A 96.74 96.74 0 1 1 352.253 767.737 A 79.829 79.829 0 1 0 352.253 611.209 Z" bx:shape="crescent 409.115 689.473 96.74 252 0.7 1@c4f7af7e"/>
  <ellipse style="fill: rgb(216, 216, 216); stroke: rgb(0, 0, 0);" cx="250" cy="200.908" rx="149.419" ry="149.419" transform="matrix(0.9999999999999999, 0, 0, 0.9999999999999999, 0, 0)"/>
</svg>